<svg width="800" height="500" viewBox="0 0 800 500" xmlns="http://www.w3.org/2000/svg">
  <!-- Background -->
  <rect width="800" height="500" fill="#222639" />
  
  <!-- Keyboard -->
  <rect x="150" y="150" width="500" height="200" rx="10" fill="#333" stroke="#444" stroke-width="2" />
  
  <!-- Keys -->
  <g id="keys">
    <!-- Function Keys Row -->
    <rect x="170" y="170" width="30" height="30" rx="5" fill="#222" stroke="#444" stroke-width="1" />
    <rect x="210" y="170" width="30" height="30" rx="5" fill="#222" stroke="#444" stroke-width="1" />
    <rect x="250" y="170" width="30" height="30" rx="5" fill="#222" stroke="#444" stroke-width="1" />
    <rect x="290" y="170" width="30" height="30" rx="5" fill="#222" stroke="#444" stroke-width="1" />
    <rect x="330" y="170" width="30" height="30" rx="5" fill="#222" stroke="#444" stroke-width="1" />
    <rect x="370" y="170" width="30" height="30" rx="5" fill="#222" stroke="#444" stroke-width="1" />
    <rect x="410" y="170" width="30" height="30" rx="5" fill="#222" stroke="#444" stroke-width="1" />
    <rect x="450" y="170" width="30" height="30" rx="5" fill="#222" stroke="#444" stroke-width="1" />
    <rect x="490" y="170" width="30" height="30" rx="5" fill="#222" stroke="#444" stroke-width="1" />
    <rect x="530" y="170" width="30" height="30" rx="5" fill="#222" stroke="#444" stroke-width="1" />
    <rect x="570" y="170" width="30" height="30" rx="5" fill="#222" stroke="#444" stroke-width="1" />
    <rect x="610" y="170" width="30" height="30" rx="5" fill="#222" stroke="#444" stroke-width="1" />
    
    <!-- Number Row -->
    <rect x="170" y="210" width="30" height="30" rx="5" fill="#222" stroke="#444" stroke-width="1" />
    <rect x="210" y="210" width="30" height="30" rx="5" fill="#222" stroke="#444" stroke-width="1" />
    <rect x="250" y="210" width="30" height="30" rx="5" fill="#222" stroke="#444" stroke-width="1" />
    <rect x="290" y="210" width="30" height="30" rx="5" fill="#222" stroke="#444" stroke-width="1" />
    <rect x="330" y="210" width="30" height="30" rx="5" fill="#222" stroke="#444" stroke-width="1" />
    <rect x="370" y="210" width="30" height="30" rx="5" fill="#222" stroke="#444" stroke-width="1" />
    <rect x="410" y="210" width="30" height="30" rx="5" fill="#222" stroke="#444" stroke-width="1" />
    <rect x="450" y="210" width="30" height="30" rx="5" fill="#222" stroke="#444" stroke-width="1" />
    <rect x="490" y="210" width="30" height="30" rx="5" fill="#222" stroke="#444" stroke-width="1" />
    <rect x="530" y="210" width="30" height="30" rx="5" fill="#222" stroke="#444" stroke-width="1" />
    <rect x="570" y="210" width="30" height="30" rx="5" fill="#222" stroke="#444" stroke-width="1" />
    <rect x="610" y="210" width="30" height="30" rx="5" fill="#222" stroke="#444" stroke-width="1" />
    
    <!-- QWERTY Row -->
    <rect x="180" y="250" width="30" height="30" rx="5" fill="#222" stroke="#444" stroke-width="1" />
    <rect x="220" y="250" width="30" height="30" rx="5" fill="#686DE0" stroke="#444" stroke-width="1" />
    <rect x="260" y="250" width="30" height="30" rx="5" fill="#222" stroke="#444" stroke-width="1" />
    <rect x="300" y="250" width="30" height="30" rx="5" fill="#222" stroke="#444" stroke-width="1" />
    <rect x="340" y="250" width="30" height="30" rx="5" fill="#222" stroke="#444" stroke-width="1" />
    <rect x="380" y="250" width="30" height="30" rx="5" fill="#686DE0" stroke="#444" stroke-width="1" />
    <rect x="420" y="250" width="30" height="30" rx="5" fill="#222" stroke="#444" stroke-width="1" />
    <rect x="460" y="250" width="30" height="30" rx="5" fill="#222" stroke="#444" stroke-width="1" />
    <rect x="500" y="250" width="30" height="30" rx="5" fill="#222" stroke="#444" stroke-width="1" />
    <rect x="540" y="250" width="30" height="30" rx="5" fill="#686DE0" stroke="#444" stroke-width="1" />
    <rect x="580" y="250" width="30" height="30" rx="5" fill="#222" stroke="#444" stroke-width="1" />
    
    <!-- ASDF Row -->
    <rect x="190" y="290" width="30" height="30" rx="5" fill="#222" stroke="#444" stroke-width="1" />
    <rect x="230" y="290" width="30" height="30" rx="5" fill="#222" stroke="#444" stroke-width="1" />
    <rect x="270" y="290" width="30" height="30" rx="5" fill="#222" stroke="#444" stroke-width="1" />
    <rect x="310" y="290" width="30" height="30" rx="5" fill="#222" stroke="#444" stroke-width="1" />
    <rect x="350" y="290" width="30" height="30" rx="5" fill="#222" stroke="#444" stroke-width="1" />
    <rect x="390" y="290" width="30" height="30" rx="5" fill="#222" stroke="#444" stroke-width="1" />
    <rect x="430" y="290" width="30" height="30" rx="5" fill="#222" stroke="#444" stroke-width="1" />
    <rect x="470" y="290" width="30" height="30" rx="5" fill="#222" stroke="#444" stroke-width="1" />
    <rect x="510" y="290" width="30" height="30" rx="5" fill="#222" stroke="#444" stroke-width="1" />
    <rect x="550" y="290" width="30" height="30" rx="5" fill="#222" stroke="#444" stroke-width="1" />
    
    <!-- Space bar Row -->
    <rect x="200" y="330" width="30" height="30" rx="5" fill="#222" stroke="#444" stroke-width="1" />
    <rect x="240" y="330" width="30" height="30" rx="5" fill="#222" stroke="#444" stroke-width="1" />
    <rect x="280" y="330" width="30" height="30" rx="5" fill="#222" stroke="#444" stroke-width="1" />
    <rect x="320" y="330" width="180" height="30" rx="5" fill="#686DE0" stroke="#444" stroke-width="1" />
    <rect x="510" y="330" width="30" height="30" rx="5" fill="#222" stroke="#444" stroke-width="1" />
    <rect x="550" y="330" width="30" height="30" rx="5" fill="#222" stroke="#444" stroke-width="1" />
  </g>
  
  <!-- Logo -->
  <g id="logo">
    <text x="400" y="120" font-family="Arial" font-size="40" font-weight="bold" fill="#686DE0" text-anchor="middle">KeyBoard</text>
    <text x="400" y="80" font-family="Arial" font-size="18" font-weight="normal" fill="#ffffff" text-anchor="middle">Premium Mechanical Keyboards</text>
  </g>
  
  <!-- RGB Glow Effect -->
  <rect x="150" y="350" width="500" height="5" fill="url(#rgbGradient)" opacity="0.7" />
  
  <defs>
    <linearGradient id="rgbGradient" x1="0%" y1="0%" x2="100%" y1="0%">
      <stop offset="0%" stop-color="#ff0000" />
      <stop offset="16.67%" stop-color="#ff8000" />
      <stop offset="33.33%" stop-color="#ffff00" />
      <stop offset="50%" stop-color="#00ff00" />
      <stop offset="66.67%" stop-color="#0080ff" />
      <stop offset="83.33%" stop-color="#8000ff" />
      <stop offset="100%" stop-color="#ff0080" />
    </linearGradient>
  </defs>
</svg>
