<svg width="800" height="500" viewBox="0 0 800 500" xmlns="http://www.w3.org/2000/svg">
  <!-- Background -->
  <rect width="800" height="500" fill="#1A1E2E" />
  
  <!-- KeyBoard Branding Materials -->
  <g id="branding">
    <!-- Business Cards -->
    <rect x="100" y="100" width="250" height="150" rx="5" fill="#222639" stroke="#686DE0" stroke-width="2" />
    <text x="225" y="160" font-family="Arial" font-size="24" font-weight="bold" fill="#686DE0" text-anchor="middle">KeyBoard</text>
    <text x="225" y="190" font-family="Arial" font-size="12" fill="#ffffff" text-anchor="middle">Premium Mechanical Keyboards</text>
    <text x="225" y="215" font-family="Arial" font-size="10" fill="#aaaaaa" text-anchor="middle">www.keyboard-brand.com</text>
    
    <!-- Logo Variations -->
    <circle cx="450" cy="150" r="50" fill="#222639" stroke="#686DE0" stroke-width="2" />
    <text x="450" y="160" font-family="Arial" font-size="18" font-weight="bold" fill="#686DE0" text-anchor="middle">KB</text>
    
    <rect x="550" y="100" width="100" height="100" rx="10" fill="#222639" stroke="#686DE0" stroke-width="2" />
    <text x="600" y="160" font-family="Arial" font-size="24" font-weight="bold" fill="#686DE0" text-anchor="middle">K</text>
  </g>
  
  <!-- Color Palette -->
  <g id="color-palette">
    <rect x="100" y="300" width="80" height="80" rx="5" fill="#686DE0" />
    <text x="140" y="350" font-family="Arial" font-size="12" fill="#ffffff" text-anchor="middle">Primary</text>
    
    <rect x="200" y="300" width="80" height="80" rx="5" fill="#222639" />
    <text x="240" y="350" font-family="Arial" font-size="12" fill="#ffffff" text-anchor="middle">Dark</text>
    
    <rect x="300" y="300" width="80" height="80" rx="5" fill="#FFFFFF" />
    <text x="340" y="350" font-family="Arial" font-size="12" fill="#222639" text-anchor="middle">Light</text>
    
    <rect x="400" y="300" width="80" height="80" rx="5" fill="#3742FA" />
    <text x="440" y="350" font-family="Arial" font-size="12" fill="#ffffff" text-anchor="middle">Accent 1</text>
    
    <rect x="500" y="300" width="80" height="80" rx="5" fill="#5352ED" />
    <text x="540" y="350" font-family="Arial" font-size="12" fill="#ffffff" text-anchor="middle">Accent 2</text>
    
    <rect x="600" y="300" width="80" height="80" rx="5" fill="#7158e2" />
    <text x="640" y="350" font-family="Arial" font-size="12" fill="#ffffff" text-anchor="middle">Accent 3</text>
  </g>
  
  <!-- Typography -->
  <g id="typography">
    <text x="100" y="420" font-family="Arial" font-size="24" font-weight="bold" fill="#ffffff">Aa</text>
    <text x="140" y="420" font-family="Arial" font-size="12" fill="#aaaaaa">Inter Bold</text>
    
    <text x="100" y="450" font-family="Arial" font-size="24" font-weight="normal" fill="#ffffff">Aa</text>
    <text x="140" y="450" font-family="Arial" font-size="12" fill="#aaaaaa">Inter Regular</text>
    
    <text x="300" y="420" font-family="Arial" font-size="24" font-weight="bold" fill="#686DE0">KeyBoard</text>
    <text x="300" y="450" font-family="Arial" font-size="14" fill="#ffffff">Premium Mechanical Keyboards</text>
  </g>

  <!-- Title -->
  <text x="400" y="50" font-family="Arial" font-size="24" font-weight="bold" fill="#ffffff" text-anchor="middle">Brand Identity Design</text>
</svg>
