<svg width="100" height="100" viewBox="0 0 100 100" fill="none" xmlns="http://www.w3.org/2000/svg">
  <defs>
    <linearGradient id="clientGradient2" x1="0%" y1="0%" x2="100%" y2="100%">
      <stop offset="0%" style="stop-color:#6366f1;stop-opacity:1" />
      <stop offset="100%" style="stop-color:#f59e0b;stop-opacity:1" />
    </linearGradient>
  </defs>
  
  <!-- Background circle -->
  <circle cx="50" cy="50" r="50" fill="url(#clientGradient2)"/>
  
  <!-- Person silhouette -->
  <circle cx="50" cy="35" r="15" fill="#ffffff" opacity="0.9"/>
  <path d="M50 50 C35 50, 25 60, 25 70 L25 85 C25 90, 30 95, 35 95 L65 95 C70 95, 75 90, 75 85 L75 70 C75 60, 65 50, 50 50 Z" fill="#ffffff" opacity="0.9"/>
  
  <!-- Beard/facial hair -->
  <ellipse cx="50" cy="45" rx="8" ry="5" fill="#f59e0b" opacity="0.6"/>
  
  <!-- Eyes -->
  <circle cx="45" cy="32" r="2" fill="#6366f1" opacity="0.7"/>
  <circle cx="55" cy="32" r="2" fill="#6366f1" opacity="0.7"/>
  
  <!-- Tech elements -->
  <rect x="30" y="75" width="40" height="12" rx="6" fill="#6366f1" opacity="0.3"/>
  <circle cx="35" cy="81" r="3" fill="#ffffff" opacity="0.8"/>
  <circle cx="50" cy="81" r="3" fill="#ffffff" opacity="0.8"/>
  <circle cx="65" cy="81" r="3" fill="#ffffff" opacity="0.8"/>
</svg>
