<svg width="100" height="100" viewBox="0 0 100 100" fill="none" xmlns="http://www.w3.org/2000/svg">
  <defs>
    <linearGradient id="clientGradient1" x1="0%" y1="0%" x2="100%" y2="100%">
      <stop offset="0%" style="stop-color:#8b5cf6;stop-opacity:1" />
      <stop offset="100%" style="stop-color:#6366f1;stop-opacity:1" />
    </linearGradient>
  </defs>
  
  <!-- Background circle -->
  <circle cx="50" cy="50" r="50" fill="url(#clientGradient1)"/>
  
  <!-- Person silhouette -->
  <circle cx="50" cy="35" r="15" fill="#ffffff" opacity="0.9"/>
  <path d="M50 50 C35 50, 25 60, 25 70 L25 85 C25 90, 30 95, 35 95 L65 95 C70 95, 75 90, 75 85 L75 70 C75 60, 65 50, 50 50 Z" fill="#ffffff" opacity="0.9"/>
  
  <!-- Professional accessories -->
  <rect x="42" y="25" width="16" height="8" rx="8" fill="#6366f1" opacity="0.3"/>
  <circle cx="45" cy="40" r="2" fill="#6366f1" opacity="0.6"/>
  <circle cx="55" cy="40" r="2" fill="#6366f1" opacity="0.6"/>
  
  <!-- Business elements -->
  <rect x="35" y="75" width="30" height="15" rx="2" fill="#8b5cf6" opacity="0.4"/>
</svg>
