<svg width="600" height="400" viewBox="0 0 600 400" fill="none" xmlns="http://www.w3.org/2000/svg">
  <rect width="600" height="400" fill="#1a1a2e"/>
  
  <!-- Phone mockup -->
  <rect x="200" y="50" width="200" height="350" rx="25" fill="#16213e" stroke="#eee" stroke-width="2"/>
  <rect x="210" y="80" width="180" height="280" rx="10" fill="#0f3460"/>
  
  <!-- HandP App UI -->
  <rect x="220" y="90" width="160" height="40" rx="8" fill="#e94560"/>
  <text x="300" y="115" text-anchor="middle" fill="white" font-family="Arial" font-size="14" font-weight="bold">HandP</text>
  
  <!-- Navigation tabs -->
  <rect x="220" y="140" width="35" height="30" rx="5" fill="#0f3460" stroke="#e94560" stroke-width="1"/>
  <text x="237" y="158" text-anchor="middle" fill="#e94560" font-family="Arial" font-size="10">Home</text>
  
  <rect x="260" y="140" width="35" height="30" rx="5" fill="#e94560"/>
  <text x="277" y="158" text-anchor="middle" fill="white" font-family="Arial" font-size="10">Chat</text>
  
  <rect x="300" y="140" width="35" height="30" rx="5" fill="#0f3460" stroke="#e94560" stroke-width="1"/>
  <text x="317" y="158" text-anchor="middle" fill="#e94560" font-family="Arial" font-size="10">Profile</text>
  
  <rect x="340" y="140" width="35" height="30" rx="5" fill="#0f3460" stroke="#e94560" stroke-width="1"/>
  <text x="357" y="158" text-anchor="middle" fill="#e94560" font-family="Arial" font-size="10">More</text>
  
  <!-- Chat interface -->
  <rect x="225" y="185" width="100" height="25" rx="12" fill="#e94560"/>
  <text x="275" y="200" text-anchor="middle" fill="white" font-family="Arial" font-size="9">Hello there!</text>
  
  <rect x="275" y="220" width="100" height="25" rx="12" fill="#f0f0f0"/>
  <text x="325" y="235" text-anchor="middle" fill="#333" font-family="Arial" font-size="9">How are you?</text>
  
  <rect x="225" y="255" width="120" height="25" rx="12" fill="#e94560"/>
  <text x="285" y="270" text-anchor="middle" fill="white" font-family="Arial" font-size="9">I'm doing great!</text>
  
  <!-- Input area -->
  <rect x="225" y="320" width="120" height="25" rx="12" fill="#f0f0f0" stroke="#ddd" stroke-width="1"/>
  <text x="235" y="335" fill="#999" font-family="Arial" font-size="9">Type a message...</text>
  <circle cx="365" cy="332" r="8" fill="#e94560"/>
  <text x="365" y="336" text-anchor="middle" fill="white" font-family="Arial" font-size="8">→</text>
  
  <!-- Decorative elements -->
  <circle cx="100" cy="100" r="30" fill="#e94560" opacity="0.1"/>
  <circle cx="500" cy="300" r="40" fill="#0f3460" opacity="0.1"/>
  <rect x="50" y="200" width="80" height="4" rx="2" fill="#e94560" opacity="0.3"/>
  <rect x="470" y="150" width="60" height="4" rx="2" fill="#0f3460" opacity="0.3"/>
</svg>
