<svg width="800" height="600" viewBox="0 0 800 600" xmlns="http://www.w3.org/2000/svg">
  <defs>
    <linearGradient id="sofaGal1" x1="0%" y1="0%" x2="100%" y2="100%">
      <stop offset="0%" style="stop-color:#f8f9fa"/>
      <stop offset="100%" style="stop-color:#e9ecef"/>
    </linearGradient>
  </defs>
  
  <!-- Background -->
  <rect width="800" height="600" fill="url(#sofaGal1)"/>
  
  <!-- Modern living room setup -->
  <rect x="0" y="0" width="800" height="350" fill="#ffffff"/>
  <rect x="0" y="350" width="800" height="250" fill="#f1f3f4"/>
  
  <!-- Large sectional sofa -->
  <path d="M 50 250 L 600 250 Q 650 250 650 300 L 650 380 Q 650 400 620 400 L 80 400 Q 50 400 50 370 Z" fill="#6c757d"/>
  
  <!-- Corner piece -->
  <path d="M 600 250 L 750 250 Q 780 250 780 280 L 780 380 Q 780 400 750 400 L 620 400 Q 600 400 600 380 Z" fill="#6c757d"/>
  
  <!-- Seat cushions -->
  <rect x="80" y="290" width="120" height="80" rx="10" fill="#adb5bd"/>
  <rect x="220" y="290" width="120" height="80" rx="10" fill="#adb5bd"/>
  <rect x="360" y="290" width="120" height="80" rx="10" fill="#adb5bd"/>
  <rect x="500" y="290" width="120" height="80" rx="10" fill="#adb5bd"/>
  <rect x="630" y="290" width="120" height="80" rx="10" fill="#adb5bd"/>
  
  <!-- Back cushions -->
  <rect x="90" y="260" width="100" height="40" rx="20" fill="#495057"/>
  <rect x="230" y="260" width="100" height="40" rx="20" fill="#495057"/>
  <rect x="370" y="260" width="100" height="40" rx="20" fill="#495057"/>
  <rect x="510" y="260" width="100" height="40" rx="20" fill="#495057"/>
  <rect x="640" y="260" width="100" height="40" rx="20" fill="#495057"/>
  
  <!-- Coffee table -->
  <rect x="200" y="450" width="400" height="80" rx="40" fill="#8b4513"/>
  <rect x="220" y="470" width="360" height="40" rx="20" fill="#a0522d"/>
  
  <!-- Decorative items -->
  <circle cx="350" cy="490" r="15" fill="#e94560"/>
  <circle cx="450" cy="490" r="15" fill="#28a745"/>
  
  <!-- Text -->
  <text x="400" y="150" text-anchor="middle" fill="#495057" font-family="Arial, sans-serif" font-size="24" font-weight="bold">SOFA Gallery 1</text>
</svg>
