<svg width="800" height="600" viewBox="0 0 800 600" xmlns="http://www.w3.org/2000/svg">
  <defs>
    <linearGradient id="workGal1" x1="0%" y1="0%" x2="100%" y2="100%">
      <stop offset="0%" style="stop-color:#667eea"/>
      <stop offset="100%" style="stop-color:#764ba2"/>
    </linearGradient>
  </defs>
  
  <!-- Background -->
  <rect width="800" height="600" fill="url(#workGal1)"/>
  
  <!-- Dashboard view -->
  <rect x="50" y="100" width="700" height="400" fill="#ffffff" rx="10"/>
  
  <!-- Header -->
  <rect x="50" y="100" width="700" height="60" fill="#667eea" rx="10"/>
  <rect x="50" y="140" width="700" height="20" fill="#667eea"/>
  
  <text x="400" y="140" text-anchor="middle" fill="#ffffff" font-family="Arial, sans-serif" font-size="24" font-weight="bold">Work Media Dashboard</text>
  
  <!-- Sidebar -->
  <rect x="70" y="180" width="150" height="300" fill="#f8f9fa"/>
  
  <!-- Menu items -->
  <rect x="80" y="200" width="130" height="30" fill="#667eea"/>
  <text x="145" y="220" text-anchor="middle" fill="#ffffff" font-family="Arial, sans-serif" font-size="12">Projects</text>
  
  <rect x="80" y="240" width="130" height="30" fill="#e9ecef"/>
  <text x="145" y="260" text-anchor="middle" fill="#495057" font-family="Arial, sans-serif" font-size="12">Team</text>
  
  <rect x="80" y="280" width="130" height="30" fill="#e9ecef"/>
  <text x="145" y="300" text-anchor="middle" fill="#495057" font-family="Arial, sans-serif" font-size="12">Files</text>
  
  <rect x="80" y="320" width="130" height="30" fill="#e9ecef"/>
  <text x="145" y="340" text-anchor="middle" fill="#495057" font-family="Arial, sans-serif" font-size="12">Calendar</text>
  
  <!-- Main content area -->
  <rect x="240" y="180" width="490" height="300" fill="#ffffff"/>
  
  <!-- Project cards -->
  <rect x="260" y="200" width="140" height="120" fill="#f8f9fa" stroke="#dee2e6"/>
  <rect x="260" y="200" width="140" height="30" fill="#28a745"/>
  <text x="330" y="220" text-anchor="middle" fill="#ffffff" font-family="Arial, sans-serif" font-size="11" font-weight="bold">Website Redesign</text>
  <text x="330" y="250" text-anchor="middle" fill="#495057" font-family="Arial, sans-serif" font-size="9">Progress: 75%</text>
  <rect x="270" y="260" width="120" height="8" fill="#e9ecef"/>
  <rect x="270" y="260" width="90" height="8" fill="#28a745"/>
  
  <rect x="420" y="200" width="140" height="120" fill="#f8f9fa" stroke="#dee2e6"/>
  <rect x="420" y="200" width="140" height="30" fill="#ffc107"/>
  <text x="490" y="220" text-anchor="middle" fill="#ffffff" font-family="Arial, sans-serif" font-size="11" font-weight="bold">Mobile App</text>
  <text x="490" y="250" text-anchor="middle" fill="#495057" font-family="Arial, sans-serif" font-size="9">Progress: 45%</text>
  <rect x="430" y="260" width="120" height="8" fill="#e9ecef"/>
  <rect x="430" y="260" width="54" height="8" fill="#ffc107"/>
  
  <rect x="580" y="200" width="140" height="120" fill="#f8f9fa" stroke="#dee2e6"/>
  <rect x="580" y="200" width="140" height="30" fill="#e94560"/>
  <text x="650" y="220" text-anchor="middle" fill="#ffffff" font-family="Arial, sans-serif" font-size="11" font-weight="bold">Brand Identity</text>
  <text x="650" y="250" text-anchor="middle" fill="#495057" font-family="Arial, sans-serif" font-size="9">Progress: 90%</text>
  <rect x="590" y="260" width="120" height="8" fill="#e9ecef"/>
  <rect x="590" y="260" width="108" height="8" fill="#e94560"/>
  
  <!-- Activity feed -->
  <rect x="260" y="340" width="460" height="140" fill="#f8f9fa"/>
  <text x="490" y="360" text-anchor="middle" fill="#495057" font-family="Arial, sans-serif" font-size="14" font-weight="bold">Recent Activity</text>
  
  <circle cx="280" cy="380" r="8" fill="#28a745"/>
  <text x="300" y="385" fill="#495057" font-family="Arial, sans-serif" font-size="10">John completed Website Design</text>
  
  <circle cx="280" cy="400" r="8" fill="#ffc107"/>
  <text x="300" y="405" fill="#495057" font-family="Arial, sans-serif" font-size="10">Sarah uploaded new assets</text>
  
  <circle cx="280" cy="420" r="8" fill="#e94560"/>
  <text x="300" y="425" fill="#495057" font-family="Arial, sans-serif" font-size="10">Team meeting scheduled</text>
  
  <!-- Text -->
  <text x="400" y="60" text-anchor="middle" fill="#ffffff" font-family="Arial, sans-serif" font-size="24" font-weight="bold">Work Media Gallery 1</text>
</svg>
