<svg width="800" height="600" viewBox="0 0 800 600" xmlns="http://www.w3.org/2000/svg">
  <defs>
    <linearGradient id="workGal3" x1="0%" y1="0%" x2="100%" y2="100%">
      <stop offset="0%" style="stop-color:#667eea"/>
      <stop offset="100%" style="stop-color:#764ba2"/>
    </linearGradient>
  </defs>
  
  <!-- Background -->
  <rect width="800" height="600" fill="url(#workGal3)"/>
  
  <!-- Mobile app interface -->
  <rect x="250" y="80" width="300" height="440" rx="25" fill="#2c3e50"/>
  <rect x="270" y="110" width="260" height="380" fill="#ffffff"/>
  
  <!-- App header -->
  <rect x="270" y="110" width="260" height="60" fill="#667eea"/>
  <circle cx="300" cy="140" r="15" fill="#ffffff"/>
  <text x="400" y="150" text-anchor="middle" fill="#ffffff" font-family="Arial, sans-serif" font-size="18" font-weight="bold">Work Media</text>
  
  <!-- Navigation -->
  <rect x="270" y="170" width="260" height="40" fill="#f8f9fa"/>
  
  <rect x="285" y="180" width="55" height="20" fill="#667eea" rx="10"/>
  <text x="312" y="193" text-anchor="middle" fill="#ffffff" font-family="Arial, sans-serif" font-size="10">Projects</text>
  
  <rect x="350" y="180" width="55" height="20" fill="#e9ecef" rx="10"/>
  <text x="377" y="193" text-anchor="middle" fill="#6c757d" font-family="Arial, sans-serif" font-size="10">Files</text>
  
  <rect x="415" y="180" width="55" height="20" fill="#e9ecef" rx="10"/>
  <text x="442" y="193" text-anchor="middle" fill="#6c757d" font-family="Arial, sans-serif" font-size="10">Team</text>
  
  <rect x="480" y="180" width="40" height="20" fill="#e9ecef" rx="10"/>
  <text x="500" y="193" text-anchor="middle" fill="#6c757d" font-family="Arial, sans-serif" font-size="10">More</text>
  
  <!-- Project list -->
  <rect x="285" y="230" width="230" height="50" fill="#f8f9fa" stroke="#dee2e6"/>
  <circle cx="305" cy="245" r="8" fill="#28a745"/>
  <text x="325" y="245" fill="#495057" font-family="Arial, sans-serif" font-size="12" font-weight="bold">Website Redesign</text>
  <text x="325" y="260" fill="#6c757d" font-family="Arial, sans-serif" font-size="10">Due: Tomorrow</text>
  <text x="485" y="250" fill="#28a745" font-family="Arial, sans-serif" font-size="10">75%</text>
  
  <rect x="285" y="290" width="230" height="50" fill="#f8f9fa" stroke="#dee2e6"/>
  <circle cx="305" cy="305" r="8" fill="#ffc107"/>
  <text x="325" y="305" fill="#495057" font-family="Arial, sans-serif" font-size="12" font-weight="bold">Mobile App UI</text>
  <text x="325" y="320" fill="#6c757d" font-family="Arial, sans-serif" font-size="10">Due: Next week</text>
  <text x="485" y="310" fill="#ffc107" font-family="Arial, sans-serif" font-size="10">45%</text>
  
  <rect x="285" y="350" width="230" height="50" fill="#f8f9fa" stroke="#dee2e6"/>
  <circle cx="305" cy="365" r="8" fill="#e94560"/>
  <text x="325" y="365" fill="#495057" font-family="Arial, sans-serif" font-size="12" font-weight="bold">Brand Guidelines</text>
  <text x="325" y="380" fill="#6c757d" font-family="Arial, sans-serif" font-size="10">Due: Today</text>
  <text x="485" y="370" fill="#e94560" font-family="Arial, sans-serif" font-size="10">90%</text>
  
  <!-- Quick actions -->
  <rect x="285" y="420" width="230" height="50" fill="#667eea"/>
  <text x="400" y="440" text-anchor="middle" fill="#ffffff" font-family="Arial, sans-serif" font-size="12" font-weight="bold">+ New Project</text>
  <text x="400" y="455" text-anchor="middle" fill="#ffffff" font-family="Arial, sans-serif" font-size="10" opacity="0.8">Start collaborating</text>
  
  <!-- Bottom navigation -->
  <rect x="270" y="450" width="260" height="40" fill="#f8f9fa"/>
  
  <circle cx="310" cy="470" r="12" fill="#667eea"/>
  <circle cx="370" cy="470" r="12" fill="#dee2e6"/>
  <circle cx="430" cy="470" r="12" fill="#dee2e6"/>
  <circle cx="490" cy="470" r="12" fill="#dee2e6"/>
  
  <!-- Side elements -->
  <circle cx="150" cy="200" r="30" fill="#ffffff" opacity="0.1"/>
  <circle cx="650" cy="350" r="25" fill="#ffffff" opacity="0.15"/>
  <circle cx="100" cy="450" r="20" fill="#ffffff" opacity="0.08"/>
  <circle cx="700" cy="150" r="35" fill="#ffffff" opacity="0.12"/>
  
  <!-- Text -->
  <text x="400" y="60" text-anchor="middle" fill="#ffffff" font-family="Arial, sans-serif" font-size="24" font-weight="bold">Work Media Gallery 3 - Mobile Experience</text>
</svg>
